HIERARCHY
ROOT newVegas:Hips
{
	OFFSET 0.000000 96.479958 0.000000
	CHANNELS 6 Xposition Yposition Zposition Xrotation Yrotation Zrotation
	JOINT newVegas:Pelvis
	{
		OFFSET 0.000000 0.000000 0.000000
		CHANNELS 3 Xrotation Yrotation Zrotation
		JOINT newVegas:LeftUpLeg
		{
			OFFSET 18.735201 -5.666702 -4.541200
			CHANNELS 3 Xrotation Yrotation Zrotation
			JOINT newVegas:LeftLeg
			{
				OFFSET -0.021200 -31.938179 0.493100
				CHANNELS 3 Xrotation Yrotation Zrotation
				JOINT newVegas:LeftFoot
				{
					OFFSET 0.021200 -31.938179 -4.336299
					CHANNELS 3 Xrotation Yrotation Zrotation
					JOINT newVegas:LeftToeBase
					{
						OFFSET 0.943001 -26.722000 15.023500
						CHANNELS 3 Xrotation Yrotation Zrotation
						End Site
						{
							OFFSET 0.000000 30.670183 0.000000
						}
					}
				}
				JOINT newVegas:Left_PantLeg
				{
					OFFSET 0.663870 -9.044666 -1.108900
					CHANNELS 3 Xrotation Yrotation Zrotation
					End Site
					{
						OFFSET 1.415995 20.635357 0.000000
					}
				}
			}
		}
		JOINT newVegas:RightUpLeg
		{
			OFFSET -18.735201 -5.666702 -4.541200
			CHANNELS 3 Xrotation Yrotation Zrotation
			JOINT newVegas:RightLeg
			{
				OFFSET 0.018946 -31.938133 0.493100
				CHANNELS 3 Xrotation Yrotation Zrotation
				JOINT newVegas:RightFoot
				{
					OFFSET -0.018946 -31.938126 -4.336299
					CHANNELS 3 Xrotation Yrotation Zrotation
					JOINT newVegas:RightToeBase
					{
						OFFSET -0.943001 -26.722004 15.023500
						CHANNELS 3 Xrotation Yrotation Zrotation
						End Site
						{
							OFFSET 0.000000 30.670187 0.000000
						}
					}
				}
				JOINT newVegas:Right_PantLeg
				{
					OFFSET -0.661674 -9.044716 -1.108900
					CHANNELS 3 Xrotation Yrotation Zrotation
					End Site
					{
						OFFSET -1.415958 20.635269 0.000000
					}
				}
			}
		}
	}
	JOINT newVegas:Spine
	{
		OFFSET 0.000000 10.199997 -0.299500
		CHANNELS 3 Xrotation Yrotation Zrotation
		JOINT newVegas:Spine1
		{
			OFFSET 0.000000 11.900002 -1.516600
			CHANNELS 3 Xrotation Yrotation Zrotation
			JOINT newVegas:Spine2
			{
				OFFSET 0.000000 13.600006 -2.842500
				CHANNELS 3 Xrotation Yrotation Zrotation
				JOINT newVegas:Neck
				{
					OFFSET 0.000000 9.624100 -2.890100
					CHANNELS 3 Xrotation Yrotation Zrotation
					JOINT newVegas:Head
					{
						OFFSET 0.000000 14.068802 -1.351900
						CHANNELS 3 Xrotation Yrotation Zrotation
						JOINT newVegas:Hair_Back
						{
							OFFSET 0.000000 3.231903 -17.524799
							CHANNELS 3 Xrotation Yrotation Zrotation
							End Site
							{
								OFFSET 0.000000 19.849884 0.000000
							}
						}
						JOINT newVegas:Hair_Front
						{
							OFFSET 0.000000 31.260406 4.573800
							CHANNELS 3 Xrotation Yrotation Zrotation
							JOINT newVegas:Hair_Front1
							{
								OFFSET 0.000000 2.284103 11.993300
								CHANNELS 3 Xrotation Yrotation Zrotation
								JOINT newVegas:Hair_Front2
								{
									OFFSET 0.000000 2.284103 11.993300
									CHANNELS 3 Xrotation Yrotation Zrotation
									End Site
									{
										OFFSET 0.000000 12.208862 0.000000
									}
								}
							}
						}
						JOINT newVegas:Jowel
						{
							OFFSET 0.000000 -7.458206 6.864100
							CHANNELS 3 Xrotation Yrotation Zrotation
							End Site
							{
								OFFSET 0.000000 19.849884 0.000000
							}
						}
					}
				}
				JOINT newVegas:LeftShoulder
				{
					OFFSET 15.263000 10.923401 -0.547700
					CHANNELS 3 Xrotation Yrotation Zrotation
					JOINT newVegas:LeftArm
					{
						OFFSET 25.438599 -2.830597 -13.032500
						CHANNELS 3 Xrotation Yrotation Zrotation
						JOINT newVegas:LeftForeArm
						{
							OFFSET 29.960503 0.000000 0.000000
							CHANNELS 3 Xrotation Yrotation Zrotation
							JOINT newVegas:LeftHand
							{
								OFFSET 27.849251 0.000000 0.000000
								CHANNELS 3 Xrotation Yrotation Zrotation
								JOINT newVegas:LeftHandThumb1
								{
									OFFSET 4.487587 -3.305161 6.305391
									CHANNELS 3 Xrotation Yrotation Zrotation
									JOINT newVegas:LeftHandThumb2
									{
										OFFSET 5.480453 -3.164139 3.164143
										CHANNELS 3 Xrotation Yrotation Zrotation
										JOINT newVegas:LeftHandThumb3
										{
											OFFSET 5.159721 -2.978973 2.978967
											CHANNELS 3 Xrotation Yrotation Zrotation
											End Site
											{
												OFFSET 2.494507 5.926697 1.738678
											}
										}
									}
								}
								JOINT newVegas:LeftHandIndex1
								{
									OFFSET 18.578728 -0.527832 5.208049
									CHANNELS 3 Xrotation Yrotation Zrotation
									JOINT newVegas:LeftHandIndex2
									{
										OFFSET 3.192009 0.000000 0.000000
										CHANNELS 3 Xrotation Yrotation Zrotation
										JOINT newVegas:LeftHandIndex3
										{
											OFFSET 3.835129 0.000000 0.000000
											CHANNELS 3 Xrotation Yrotation Zrotation
											End Site
											{
												OFFSET -0.034599 3.816971 0.371180
											}
										}
									}
								}
								JOINT newVegas:LeftHandMiddle1
								{
									OFFSET 18.476105 0.000000 0.000000
									CHANNELS 3 Xrotation Yrotation Zrotation
									JOINT newVegas:LeftHandMiddle2
									{
										OFFSET 3.324875 0.000000 0.000000
										CHANNELS 3 Xrotation Yrotation Zrotation
										JOINT newVegas:LeftHandMiddle3
										{
											OFFSET 4.596550 0.000000 0.000000
											CHANNELS 3 Xrotation Yrotation Zrotation
											End Site
											{
												OFFSET 0.057701 4.578827 0.399218
											}
										}
									}
								}
								JOINT newVegas:LeftHandRing1
								{
									OFFSET 17.732719 0.121887 -4.201567
									CHANNELS 3 Xrotation Yrotation Zrotation
									JOINT newVegas:LeftHandRing2
									{
										OFFSET 2.733170 0.000000 0.000000
										CHANNELS 3 Xrotation Yrotation Zrotation
										JOINT newVegas:LeftHandRing3
										{
											OFFSET 3.178268 0.000000 0.000000
											CHANNELS 3 Xrotation Yrotation Zrotation
											End Site
											{
												OFFSET 0.119102 3.170624 0.185394
											}
										}
									}
								}
								JOINT newVegas:LeftHandPinky1
								{
									OFFSET 15.989624 -0.606689 -7.535461
									CHANNELS 3 Xrotation Yrotation Zrotation
									JOINT newVegas:LeftHandPinky2
									{
										OFFSET 2.538986 0.000000 0.000000
										CHANNELS 3 Xrotation Yrotation Zrotation
										JOINT newVegas:LeftHandPinky3
										{
											OFFSET 2.593102 0.000000 0.000000
											CHANNELS 3 Xrotation Yrotation Zrotation
											End Site
											{
												OFFSET -0.150902 2.584198 0.152708
											}
										}
									}
								}
							}
							JOINT newVegas:Left_Sleeve
							{
								OFFSET 0.267448 -0.649796 0.577675
								CHANNELS 3 Xrotation Yrotation Zrotation
								End Site
								{
									OFFSET 0.000000 15.991241 0.000000
								}
							}
							JOINT newVegas:Left_CapeC
							{
								OFFSET 15.715958 -8.608795 -6.935905
								CHANNELS 3 Xrotation Yrotation Zrotation
								JOINT newVegas:Left_CapeC1
								{
									OFFSET 0.000000 -8.688499 0.000000
									CHANNELS 3 Xrotation Yrotation Zrotation
									End Site
									{
										OFFSET 0.000000 8.688499 0.000000
									}
								}
							}
						}
						JOINT newVegas:Left_CapeB
						{
							OFFSET 26.118385 -8.608795 -7.079235
							CHANNELS 3 Xrotation Yrotation Zrotation
							JOINT newVegas:Left_CapeB1
							{
								OFFSET 0.000000 -8.688499 0.000000
								CHANNELS 3 Xrotation Yrotation Zrotation
								End Site
								{
									OFFSET 0.000000 8.688499 0.000000
								}
							}
						}
						JOINT newVegas:Left_CapeA
						{
							OFFSET 5.115639 -8.608795 -10.395809
							CHANNELS 3 Xrotation Yrotation Zrotation
							JOINT newVegas:Left_CapeA1
							{
								OFFSET 0.000000 -8.688499 0.000000
								CHANNELS 3 Xrotation Yrotation Zrotation
								End Site
								{
									OFFSET 0.000000 8.688499 0.000000
								}
							}
						}
					}
				}
				JOINT newVegas:RightShoulder
				{
					OFFSET -15.263000 10.923401 -0.547700
					CHANNELS 3 Xrotation Yrotation Zrotation
					JOINT newVegas:RightArm
					{
						OFFSET -25.438599 -2.830597 -13.032500
						CHANNELS 3 Xrotation Yrotation Zrotation
						JOINT newVegas:RightForeArm
						{
							OFFSET -29.960503 0.000000 0.000000
							CHANNELS 3 Xrotation Yrotation Zrotation
							JOINT newVegas:RightHand
							{
								OFFSET -27.849251 0.000000 0.000000
								CHANNELS 3 Xrotation Yrotation Zrotation
								JOINT newVegas:RightHandThumb1
								{
									OFFSET -4.487587 -3.305161 6.305391
									CHANNELS 3 Xrotation Yrotation Zrotation
									JOINT newVegas:RightHandThumb2
									{
										OFFSET -5.480453 -3.164139 3.164143
										CHANNELS 3 Xrotation Yrotation Zrotation
										JOINT newVegas:RightHandThumb3
										{
											OFFSET -5.159721 -2.978973 2.978967
											CHANNELS 3 Xrotation Yrotation Zrotation
											End Site
											{
												OFFSET -2.494507 5.926697 1.738678
											}
										}
									}
								}
								JOINT newVegas:RightHandIndex1
								{
									OFFSET -18.578728 -0.527832 5.208049
									CHANNELS 3 Xrotation Yrotation Zrotation
									JOINT newVegas:RightHandIndex2
									{
										OFFSET -3.192009 0.000000 0.000000
										CHANNELS 3 Xrotation Yrotation Zrotation
										JOINT newVegas:RightHandIndex3
										{
											OFFSET -3.835129 0.000000 0.000000
											CHANNELS 3 Xrotation Yrotation Zrotation
											End Site
											{
												OFFSET 0.034599 3.816971 0.371180
											}
										}
									}
								}
								JOINT newVegas:RightHandMiddle1
								{
									OFFSET -18.476105 0.000000 0.000000
									CHANNELS 3 Xrotation Yrotation Zrotation
									JOINT newVegas:RightHandMiddle2
									{
										OFFSET -3.324875 0.000000 0.000000
										CHANNELS 3 Xrotation Yrotation Zrotation
										JOINT newVegas:RightHandMiddle3
										{
											OFFSET -4.596550 0.000000 0.000000
											CHANNELS 3 Xrotation Yrotation Zrotation
											End Site
											{
												OFFSET -0.057701 4.578827 0.399218
											}
										}
									}
								}
								JOINT newVegas:RightHandRing1
								{
									OFFSET -17.732719 0.121887 -4.201567
									CHANNELS 3 Xrotation Yrotation Zrotation
									JOINT newVegas:RightHandRing2
									{
										OFFSET -2.733170 0.000000 0.000000
										CHANNELS 3 Xrotation Yrotation Zrotation
										JOINT newVegas:RightHandRing3
										{
											OFFSET -3.178268 0.000000 0.000000
											CHANNELS 3 Xrotation Yrotation Zrotation
											End Site
											{
												OFFSET -0.119102 3.170624 0.185394
											}
										}
									}
								}
								JOINT newVegas:RightHandPinky1
								{
									OFFSET -15.989624 -0.606689 -7.535461
									CHANNELS 3 Xrotation Yrotation Zrotation
									JOINT newVegas:RightHandPinky2
									{
										OFFSET -2.538986 0.000000 0.000000
										CHANNELS 3 Xrotation Yrotation Zrotation
										JOINT newVegas:RightHandPinky3
										{
											OFFSET -2.593102 0.000000 0.000000
											CHANNELS 3 Xrotation Yrotation Zrotation
											End Site
											{
												OFFSET 0.150902 2.584198 0.152708
											}
										}
									}
								}
							}
							JOINT newVegas:Right_CapeC
							{
								OFFSET -15.715958 -8.608795 -6.935905
								CHANNELS 3 Xrotation Yrotation Zrotation
								JOINT newVegas:Right_CapeC1
								{
									OFFSET 0.000000 -8.688499 0.000000
									CHANNELS 3 Xrotation Yrotation Zrotation
									End Site
									{
										OFFSET 0.000000 8.688499 0.000000
									}
								}
							}
							JOINT newVegas:Right_Sleeve
							{
								OFFSET -0.267448 -0.649994 0.577675
								CHANNELS 3 Xrotation Yrotation Zrotation
								End Site
								{
									OFFSET 0.000000 15.991302 0.000000
								}
							}
						}
						JOINT newVegas:Right_CapeA
						{
							OFFSET -5.115540 -8.608795 -10.395824
							CHANNELS 3 Xrotation Yrotation Zrotation
							JOINT newVegas:Right_CapeA1
							{
								OFFSET 0.000000 -8.688499 0.000000
								CHANNELS 3 Xrotation Yrotation Zrotation
								End Site
								{
									OFFSET 0.000000 8.688499 0.000000
								}
							}
						}
						JOINT newVegas:Right_CapeB
						{
							OFFSET -26.118187 -8.608795 -7.079266
							CHANNELS 3 Xrotation Yrotation Zrotation
							JOINT newVegas:Right_CapeB1
							{
								OFFSET 0.000000 -8.688499 0.000000
								CHANNELS 3 Xrotation Yrotation Zrotation
								End Site
								{
									OFFSET 0.000000 8.688499 0.000000
								}
							}
						}
					}
				}
				JOINT newVegas:Left_Collar
				{
					OFFSET 18.625099 8.655502 8.828100
					CHANNELS 3 Xrotation Yrotation Zrotation
					JOINT newVegas:Left_Collar1
					{
						OFFSET 14.783401 10.540405 -1.259500
						CHANNELS 3 Xrotation Yrotation Zrotation
						End Site
						{
							OFFSET 0.000000 18.199875 0.000000
						}
					}
				}
				JOINT newVegas:Collar_Back
				{
					OFFSET 0.000000 15.630707 -20.132601
					CHANNELS 3 Xrotation Yrotation Zrotation
					End Site
					{
						OFFSET 0.000000 22.523010 0.000000
					}
				}
				JOINT newVegas:Left_Peck
				{
					OFFSET 17.239599 -5.132599 25.482599
					CHANNELS 3 Xrotation Yrotation Zrotation
					End Site
					{
						OFFSET 0.000000 22.523010 0.000000
					}
				}
				JOINT newVegas:Right_Peck
				{
					OFFSET -17.239599 -5.132202 25.482599
					CHANNELS 3 Xrotation Yrotation Zrotation
					End Site
					{
						OFFSET 0.000000 22.523010 0.000000
					}
				}
				JOINT newVegas:Right_Collar
				{
					OFFSET -18.625099 8.655792 8.828100
					CHANNELS 3 Xrotation Yrotation Zrotation
					JOINT newVegas:Right_Collar1
					{
						OFFSET -14.783401 10.539993 -1.259500
						CHANNELS 3 Xrotation Yrotation Zrotation
						End Site
						{
							OFFSET 0.000000 18.199631 0.000000
						}
					}
				}
			}
		}
		JOINT newVegas:Belly
		{
			OFFSET 0.000000 -6.540398 9.014299
			CHANNELS 3 Xrotation Yrotation Zrotation
			End Site
			{
				OFFSET 0.000000 11.566666 0.000000
			}
		}
	}
	JOINT newVegas:ElvisFacialAnim_Joint
	{
		OFFSET 1.000000 -95.330101 -8.825800
		CHANNELS 3 Xrotation Yrotation Zrotation
		End Site
		{
			OFFSET 0.000000 35.315800 0.000000
		}
	}
}
MOTION
Frames: 4
Frame Time: 0.033333
-2.967730 46.149605 3.483311 -40.235675 -31.869850 -19.768698 0.000002 0.000002 0.000001 -88.296403 -14.420478 21.858484 123.374294 -12.013515 -0.900621 1.331600 -4.884257 -5.072800 0.000000 -0.000002 -0.000000 -0.000000 0.000003 -0.000000 5.380233 44.025692 -32.175805 143.219245 44.549919 7.476045 -75.091796 -16.879006 13.215984 0.000001 -0.000001 -0.000001 -0.000002 0.000000 0.000004 58.786796 2.409056 2.138062 10.734610 0.744711 -4.521333 17.520048 -0.085144 -4.562562 -1.362545 2.877706 -0.258130 -1.362559 2.877710 -0.258139 0.000002 -0.000001 0.000001 -1.362504 2.877718 -0.258142 -1.362565 2.877700 -0.258137 -0.000001 0.000002 -0.000002 0.000002 -0.000001 0.000000 -37.559029 -4.830609 1.310667 -73.285908 -19.463814 -69.165405 -0.000025 -49.482624 -0.000026 -122.217547 3.139990 22.355305 4.709222 9.560379 3.111993 19.473184 -1.474895 7.636917 0.000001 -0.000005 0.000000 -0.212819 3.933716 -36.747131 2.942145 5.078907 -60.144610 0.000000 -0.000001 -0.000001 0.405913 5.507035 -52.453172 3.387141 5.308607 -65.057477 -0.000001 -0.000002 0.000000 -0.074379 5.736766 -61.061434 4.055050 5.569501 -72.094894 0.000001 -0.000002 0.000001 -6.565551 4.545173 -72.425222 3.299616 5.267174 -64.107841 -0.000001 -0.000004 0.000003 -0.000002 0.000000 -0.000003 -0.000002 0.000000 -0.000003 -0.000003 0.000001 -0.000003 0.000002 0.000000 -0.000002 0.000002 -0.000001 -0.000001 0.000002 0.000000 -0.000002 0.000001 -0.000001 -0.000002 -42.139825 -9.769761 -7.575440 -51.815656 45.272123 94.913873 0.001357 103.657444 -0.001354 -37.420035 -24.461411 -24.583517 8.377116 -4.904135 11.022002 21.620204 -18.183888 -18.379207 -0.000003 -0.000001 0.000001 -0.920050 1.683596 12.434968 0.748123 -2.533477 32.898306 0.000000 -0.000000 0.000002 3.413052 -7.186244 51.650249 6.296792 -4.359571 110.634673 0.000000 0.000000 -0.000000 -3.349055 -2.600406 57.010564 5.440866 -4.590875 99.698161 0.000000 0.000001 -0.000001 -3.996443 -3.303951 64.593837 4.058819 -4.618629 82.610510 -0.000002 0.000003 0.000002 -0.000003 0.000004 -0.000001 -0.000001 0.000001 -0.000003 -0.000003 0.000004 -0.000001 -0.000001 0.000000 0.000001 -0.000001 0.000001 0.000001 -0.000001 0.000000 0.000001 -0.000001 0.000001 0.000001 0.000003 -0.000001 0.000002 0.000003 -0.000001 0.000002 0.000003 -0.000001 0.000002 0.000003 -0.000001 0.000002 0.000003 -0.000001 0.000002 0.000003 -0.000001 0.000002 0.000003 -0.000001 0.000002 -0.000000 -0.000001 0.000000 0.000002 0.000002 0.000001 
-2.861387 46.117012 3.485783 -40.432818 -32.016594 -20.634527 -0.000001 -0.000000 0.000000 -88.554263 -15.418163 21.917298 123.825292 -12.022567 -0.863725 1.318128 -4.871287 -5.204293 0.000000 -0.000000 0.000000 -0.000000 0.000001 -0.000000 3.983985 44.105796 -31.110590 143.213262 43.997049 7.327942 -74.208441 -17.247153 13.836315 0.000000 0.000002 -0.000002 0.000000 -0.000001 0.000002 58.769789 2.757590 2.549826 10.503397 0.931857 -4.361062 17.281593 0.098774 -4.471730 -2.126619 1.809919 -2.004659 -2.126597 1.809907 -2.004642 -0.000002 0.000001 -0.000001 -2.126599 1.809912 -2.004650 -2.126662 1.809938 -2.004651 0.000000 0.000000 0.000000 -0.000002 0.000001 0.000001 -37.559039 -4.830606 1.310667 -73.285908 -19.463812 -69.165405 -0.000032 -49.482627 -0.000022 -122.217534 3.139993 22.355301 4.709224 9.560379 3.111992 19.473180 -1.474898 7.636916 0.000001 0.000001 -0.000003 -0.212819 3.933723 -36.747131 2.942142 5.078909 -60.144610 0.000000 -0.000000 -0.000000 0.405912 5.507036 -52.453172 3.387137 5.308611 -65.057477 -0.000001 -0.000000 -0.000001 -0.074377 5.736767 -61.061434 4.055054 5.569503 -72.094894 -0.000002 -0.000000 -0.000002 -6.565549 4.545178 -72.425229 3.299617 5.267175 -64.107841 0.000001 -0.000005 -0.000001 -0.000002 -0.000001 -0.000000 -0.000002 -0.000001 -0.000000 -0.000002 -0.000001 0.000000 -0.000001 0.000000 0.000001 -0.000001 0.000001 0.000001 -0.000001 0.000000 0.000001 -0.000002 -0.000001 0.000001 -42.139822 -9.769755 -7.575439 -51.815646 45.272126 94.913873 0.001351 103.657437 -0.001341 -37.420028 -24.461412 -24.583516 8.377113 -4.904134 11.022000 21.620201 -18.183886 -18.379202 -0.000001 -0.000000 -0.000000 -0.920049 1.683595 12.434966 0.748124 -2.533478 32.898306 -0.000000 -0.000000 -0.000002 3.413052 -7.186244 51.650249 6.296792 -4.359571 110.634673 0.000000 -0.000001 -0.000000 -3.349056 -2.600408 57.010564 5.440869 -4.590873 99.698161 -0.000000 -0.000001 -0.000001 -3.996439 -3.303951 64.593837 4.058825 -4.618629 82.610510 -0.000001 0.000001 0.000003 -0.000001 0.000007 -0.000003 -0.000001 0.000001 -0.000001 -0.000001 0.000006 -0.000001 0.000001 -0.000001 0.000001 0.000001 0.000000 0.000001 0.000001 -0.000001 0.000001 0.000001 -0.000000 0.000000 -0.000004 0.000000 0.000002 -0.000004 0.000000 0.000002 -0.000004 0.000000 0.000002 -0.000004 0.000000 0.000002 -0.000004 0.000000 0.000002 -0.000004 0.000000 0.000002 -0.000004 0.000000 0.000002 -0.000001 0.000001 0.000001 -0.000001 -0.000000 0.000000 
-2.739744 46.063057 3.432976 -40.710571 -32.964259 -21.364627 -0.000002 -0.000001 -0.000001 -88.360019 -16.119397 22.762806 124.284376 -11.912742 -0.833009 0.830400 -4.919852 -5.368177 -0.000000 -0.000000 -0.000000 -0.000000 0.000001 -0.000000 2.957228 45.480406 -31.610436 143.229832 44.237817 7.393605 -72.999921 -17.501537 14.745856 -0.000001 0.000002 -0.000000 -0.000000 -0.000000 -0.000002 58.394532 2.924883 2.972729 10.288551 0.917423 -4.132888 17.069119 0.120556 -4.259292 -3.589975 1.030503 -3.890913 -3.589978 1.030503 -3.890918 0.000002 -0.000002 0.000001 -3.589915 1.030513 -3.890910 -3.589982 1.030471 -3.890907 0.000001 0.000000 0.000000 0.000002 -0.000002 0.000001 -37.559036 -4.830602 1.310667 -73.285908 -19.463812 -69.165405 -0.000024 -49.482630 -0.000025 -122.217547 3.139985 22.355305 4.709224 9.560385 3.111991 19.473185 -1.474899 7.636915 0.000003 0.000003 -0.000003 -0.212819 3.933727 -36.747128 2.942142 5.078906 -60.144617 -0.000001 0.000001 -0.000001 0.405912 5.507039 -52.453172 3.387139 5.308609 -65.057477 -0.000003 -0.000001 0.000001 -0.074377 5.736764 -61.061440 4.055050 5.569499 -72.094894 0.000003 -0.000001 -0.000001 -6.565553 4.545175 -72.425229 3.299616 5.267176 -64.107841 0.000000 -0.000002 0.000002 -0.000001 0.000002 0.000002 -0.000001 0.000002 0.000002 -0.000001 0.000002 0.000002 -0.000002 0.000001 -0.000003 -0.000002 0.000001 -0.000002 -0.000002 0.000001 -0.000003 -0.000003 0.000000 -0.000002 -42.139829 -9.769757 -7.575441 -51.815659 45.272126 94.913873 0.001350 103.657444 -0.001344 -37.420035 -24.461416 -24.583516 8.377114 -4.904139 11.022000 21.620204 -18.183890 -18.379201 -0.000002 -0.000002 -0.000001 -0.920049 1.683594 12.434968 0.748122 -2.533477 32.898310 -0.000000 -0.000000 0.000001 3.413052 -7.186246 51.650249 6.296790 -4.359571 110.634667 0.000001 0.000000 0.000000 -3.349056 -2.600409 57.010561 5.440866 -4.590873 99.698161 -0.000001 0.000001 -0.000001 -3.996440 -3.303950 64.593837 4.058820 -4.618631 82.610510 -0.000000 0.000003 0.000002 -0.000000 0.000002 0.000000 -0.000000 -0.000000 -0.000001 -0.000000 0.000001 -0.000000 -0.000001 0.000003 -0.000001 -0.000001 0.000003 0.000001 -0.000001 0.000003 -0.000001 -0.000001 0.000003 0.000000 -0.000000 0.000000 -0.000001 -0.000000 0.000000 -0.000001 -0.000000 0.000000 -0.000001 -0.000000 0.000000 -0.000001 -0.000000 0.000000 -0.000001 -0.000000 0.000000 -0.000001 -0.000000 0.000000 -0.000001 0.000001 -0.000001 -0.000000 -0.000002 -0.000001 -0.000001 
-2.787773 46.174393 3.231411 -40.064701 -35.275837 -20.414573 -0.000000 0.000002 0.000001 -87.303321 -15.387955 23.967556 123.863473 -12.010911 -0.869727 -0.717163 -4.111857 -6.315271 -0.000000 -0.000001 0.000000 0.000000 0.000002 -0.000000 2.480794 48.486673 -34.693341 143.433699 45.640031 7.772353 -72.329292 -17.398876 15.148743 0.000001 0.000001 -0.000000 -0.000000 0.000001 0.000002 57.610638 2.424097 2.774313 10.007854 0.780673 -4.058023 16.790121 0.028504 -4.175296 -4.894800 0.562924 -4.757873 -4.894811 0.562925 -4.757867 -0.000002 -0.000001 0.000000 -4.894788 0.562919 -4.757871 -4.894703 0.562916 -4.757874 0.000000 0.000000 0.000000 -0.000002 -0.000001 0.000001 -37.559039 -4.830601 1.310665 -73.285915 -19.463812 -69.165405 -0.000022 -49.482630 -0.000025 -122.217547 3.139986 22.355298 4.709221 9.560384 3.111990 19.473187 -1.474899 7.636917 0.000001 0.000001 -0.000001 -0.212819 3.933731 -36.747131 2.942143 5.078908 -60.144610 -0.000005 -0.000001 -0.000000 0.405912 5.507044 -52.453172 3.387138 5.308609 -65.057470 0.000003 -0.000001 0.000000 -0.074379 5.736769 -61.061434 4.055046 5.569498 -72.094894 0.000001 -0.000002 0.000002 -6.565548 4.545178 -72.425222 3.299620 5.267178 -64.107835 -0.000001 -0.000002 0.000001 0.000001 0.000000 0.000001 0.000001 0.000000 0.000001 -0.000000 0.000000 0.000001 0.000000 0.000001 -0.000003 0.000000 0.000001 -0.000002 0.000000 0.000001 -0.000003 -0.000001 0.000000 -0.000002 -42.139829 -9.769754 -7.575441 -51.815652 45.272126 94.913873 0.001343 103.657444 -0.001355 -37.420035 -24.461416 -24.583512 8.377113 -4.904138 11.021998 21.620211 -18.183888 -18.379204 0.000002 -0.000002 -0.000001 -0.920050 1.683595 12.434966 0.748122 -2.533476 32.898310 -0.000001 -0.000000 -0.000001 3.413052 -7.186244 51.650249 6.296791 -4.359572 110.634667 0.000001 0.000000 0.000000 -3.349056 -2.600409 57.010568 5.440866 -4.590875 99.698168 -0.000000 0.000002 0.000000 -3.996439 -3.303949 64.593837 4.058820 -4.618630 82.610510 -0.000001 0.000002 -0.000003 -0.000001 0.000000 0.000001 -0.000001 -0.000003 0.000001 -0.000001 0.000000 0.000001 0.000001 0.000005 0.000004 0.000001 0.000006 0.000004 0.000001 0.000005 0.000004 0.000001 0.000005 0.000003 -0.000004 0.000001 -0.000002 -0.000004 0.000001 -0.000002 -0.000004 0.000001 -0.000002 -0.000004 0.000001 -0.000002 -0.000004 0.000001 -0.000002 -0.000004 0.000001 -0.000002 -0.000004 0.000001 -0.000002 -0.000001 0.000001 -0.000000 -0.000000 0.000002 0.000001 
